<?xml version="1.0" standalone="no"?>
<!DOCTYPE svg PUBLIC "-//W3C//DTD SVG 20010904//EN"
 "http://www.w3.org/TR/2001/REC-SVG-20010904/DTD/svg10.dtd">
<svg version="1.0" xmlns="http://www.w3.org/2000/svg"
 width="1815.000000pt" height="1815.000000pt" viewBox="0 0 1815.000000 1815.000000"
 preserveAspectRatio="xMidYMid meet">
<metadata>
Created by potrace 1.14, written by Peter Selinger 2001-2017
</metadata>
<g transform="translate(0.000000,1815.000000) scale(0.100000,-0.100000)"
fill="#000000" stroke="none">
<path d="M8979 17706 c-2 -2 -53 -7 -114 -10 -153 -10 -268 -20 -355 -31 -19
-2 -56 -6 -82 -9 -27 -4 -69 -9 -95 -12 -55 -6 -293 -42 -338 -50 -16 -3 -43
-8 -60 -11 -164 -27 -410 -77 -680 -138 -372 -84 -698 -180 -1024 -302 -151
-56 -425 -167 -516 -208 -368 -167 -451 -211 -701 -372 -55 -36 -246 -123
-294 -134 -40 -10 -69 -25 -105 -57 -62 -56 -226 -162 -315 -205 -24 -12 -151
-94 -185 -120 -5 -4 -71 -50 -145 -103 -111 -79 -282 -206 -325 -241 -5 -5
-44 -35 -85 -68 -70 -56 -242 -197 -266 -220 -6 -5 -42 -37 -80 -70 -121 -105
-204 -184 -419 -400 -264 -264 -462 -482 -655 -720 -36 -44 -73 -89 -83 -100
-10 -11 -46 -56 -80 -100 -360 -469 -578 -799 -822 -1245 -86 -157 -285 -551
-285 -564 0 -3 -16 -38 -34 -79 -170 -367 -349 -867 -480 -1336 -48 -170 -136
-530 -150 -615 -3 -16 -10 -52 -16 -80 -26 -132 -49 -255 -55 -296 -3 -25 -10
-70 -15 -100 -5 -30 -12 -75 -15 -100 -3 -25 -10 -70 -15 -100 -5 -30 -12 -82
-15 -115 -7 -69 -9 -83 -24 -220 -6 -55 -13 -131 -16 -170 -3 -38 -8 -93 -10
-121 -27 -320 -27 -1131 0 -1399 2 -22 7 -79 10 -127 3 -47 7 -94 9 -105 2
-10 7 -53 11 -96 3 -43 8 -88 10 -100 2 -12 6 -49 10 -82 4 -32 8 -66 10 -75
1 -8 6 -42 10 -75 3 -32 8 -62 10 -65 2 -3 6 -30 10 -60 9 -75 12 -94 19 -127
3 -15 8 -44 11 -63 15 -94 69 -358 95 -465 16 -66 31 -131 34 -145 2 -14 14
-61 26 -105 12 -44 30 -111 40 -150 66 -250 184 -604 297 -890 78 -198 85
-215 125 -305 14 -30 35 -80 48 -110 53 -123 286 -574 299 -578 8 -3 11 0 7 6
-3 6 -2 14 4 17 6 4 9 14 6 23 -3 10 -8 31 -10 47 -24 141 -39 221 -43 228 -2
4 -11 7 -19 7 -8 0 -14 3 -14 6 0 3 -15 90 -34 192 -32 175 -45 247 -51 299
-2 12 -6 34 -9 50 -3 15 -8 53 -12 83 -4 30 -8 64 -10 75 -7 49 -24 185 -29
235 -8 82 -16 161 -20 200 -2 19 -7 73 -10 120 -4 47 -8 105 -10 130 -22 268
-22 1038 -1 1226 2 16 7 76 11 134 4 58 8 119 10 135 2 17 7 59 10 95 10 102
43 363 65 505 19 118 33 200 60 340 21 113 81 377 110 485 17 63 33 124 35
135 20 93 126 379 195 530 106 231 165 368 191 449 17 50 59 147 93 216 35 69
102 217 151 330 122 285 182 407 277 566 46 76 90 149 98 163 9 14 23 37 32
51 8 14 37 59 63 100 144 227 277 419 424 615 86 115 251 325 271 345 3 3 48
54 100 115 52 60 118 134 145 165 61 67 473 479 535 536 93 84 248 221 300
264 29 25 58 50 64 55 6 6 54 44 106 85 52 41 97 77 100 80 12 13 325 243 430
316 507 350 1016 632 1635 904 77 34 344 140 441 175 120 44 569 194 598 200
12 2 55 13 96 25 41 12 82 23 90 25 8 2 94 24 190 49 96 25 193 48 214 52 22
3 49 9 60 14 12 4 26 8 31 9 6 0 33 5 60 11 185 37 325 63 410 75 22 4 47 8
55 10 8 2 35 7 60 10 25 3 72 10 105 15 33 5 87 12 120 15 33 3 71 8 85 10 14
3 52 7 85 10 33 3 71 8 85 10 14 2 75 7 135 11 61 3 128 8 150 10 52 5 718 5
815 0 41 -3 136 -7 210 -11 228 -10 351 -20 440 -35 30 -5 78 -12 105 -16 28
-3 52 -8 55 -9 8 -5 152 -18 179 -16 33 2 34 3 37 63 1 29 5 78 9 108 5 48 12
88 40 245 3 17 12 66 21 110 9 44 18 96 20 115 2 19 9 60 14 90 5 30 14 87 19
125 6 39 13 86 15 105 7 47 36 256 41 300 5 35 15 101 20 130 1 8 6 40 10 70
3 30 13 91 20 135 22 124 29 191 40 390 11 189 32 294 79 406 6 13 -12 21
-106 47 -62 17 -129 34 -148 38 -19 4 -37 8 -40 9 -54 12 -70 15 -95 20 -16 3
-41 7 -55 10 -84 17 -161 28 -270 40 -30 3 -72 8 -93 11 -21 3 -116 7 -210 9
-225 4 -290 12 -360 40 -33 13 -69 22 -80 19 -98 -19 -461 -25 -612 -10 -81 8
-569 18 -576 12z"/>
<path d="M14667 15916 c4 -28 26 -165 38 -226 2 -14 19 -88 36 -165 17 -77 33
-147 34 -155 17 -73 48 -220 51 -240 2 -14 6 -36 9 -50 3 -14 7 -47 10 -75 3
-27 10 -84 15 -125 6 -41 13 -106 16 -145 3 -38 7 -88 9 -110 24 -261 25 -932
1 -1180 -2 -16 -6 -66 -10 -110 -4 -44 -9 -91 -11 -105 -2 -14 -7 -54 -10 -90
-8 -80 -12 -106 -24 -195 -16 -113 -21 -144 -42 -265 -26 -149 -32 -183 -44
-240 -1 -3 -7 -30 -13 -60 -7 -30 -14 -64 -16 -75 -10 -50 -58 -249 -82 -340
-14 -55 -28 -107 -29 -115 -42 -178 -237 -727 -340 -955 -182 -405 -356 -726
-588 -1085 -77 -119 -224 -331 -274 -395 -13 -16 -27 -34 -31 -40 -4 -5 -30
-39 -57 -75 -53 -70 -159 -202 -209 -261 -17 -20 -53 -63 -81 -95 -44 -52 -92
-106 -200 -222 -101 -111 -339 -344 -511 -502 -56 -52 -238 -208 -303 -260
-24 -19 -58 -47 -75 -61 -44 -37 -272 -209 -330 -250 -27 -19 -67 -47 -90 -63
-119 -84 -321 -215 -476 -308 -353 -211 -535 -304 -1015 -518 -214 -95 -636
-242 -930 -324 -145 -40 -392 -101 -455 -112 -14 -3 -32 -7 -40 -9 -8 -3 -33
-7 -55 -10 -22 -4 -47 -8 -55 -10 -8 -2 -31 -7 -50 -10 -19 -3 -57 -10 -85
-15 -27 -5 -70 -12 -95 -15 -25 -3 -56 -8 -70 -10 -55 -11 -68 -13 -140 -20
-41 -4 -84 -9 -95 -11 -10 -2 -51 -6 -90 -10 -38 -3 -86 -8 -105 -10 -267 -27
-868 -26 -1175 2 -145 13 -443 53 -591 79 l-32 6 -7 -63 c-4 -35 -9 -70 -10
-79 -2 -9 -6 -40 -10 -69 -4 -29 -8 -60 -10 -69 -1 -9 -6 -43 -10 -76 -4 -32
-9 -68 -11 -79 -2 -11 -6 -40 -9 -65 -3 -25 -7 -57 -10 -71 -3 -14 -7 -45 -10
-70 -3 -25 -7 -56 -10 -70 -2 -14 -7 -43 -10 -65 -3 -22 -19 -128 -36 -235
-16 -107 -32 -210 -34 -227 -9 -63 -16 -108 -21 -133 -2 -14 -7 -43 -9 -65 -3
-22 -17 -110 -30 -195 -24 -149 -29 -186 -40 -267 -3 -21 -7 -49 -10 -63 -12
-65 -15 -110 -8 -110 5 0 58 -11 118 -25 61 -14 124 -27 140 -30 17 -3 53 -10
80 -15 28 -5 67 -12 89 -16 21 -3 48 -7 59 -10 12 -2 39 -6 62 -9 22 -3 47 -8
55 -10 14 -4 197 -28 305 -40 164 -18 378 -34 530 -40 131 -6 519 -6 625 0
164 8 287 15 325 20 22 2 76 7 119 10 43 4 86 8 96 10 9 2 50 6 91 10 41 3 81
8 89 10 8 2 38 6 65 10 28 3 61 8 75 10 14 2 39 6 55 9 160 26 247 41 285 50
14 3 36 8 50 10 73 12 259 54 445 101 1118 283 2187 803 3115 1514 78 60 230
182 256 206 6 5 37 33 69 60 33 28 82 70 109 95 69 60 447 439 521 521 100
110 117 130 236 274 331 402 600 802 869 1289 43 79 200 393 240 481 18 39 43
93 56 121 157 341 357 929 463 1359 53 214 132 621 156 805 3 25 8 61 11 80 2
19 6 51 8 70 7 62 17 154 21 180 2 14 7 63 10 110 4 47 8 101 10 120 24 242
24 1056 1 1200 -3 14 -7 66 -11 115 -9 129 -14 185 -20 225 -2 19 -7 58 -11
85 -3 28 -7 61 -9 75 -2 14 -7 45 -10 70 -3 25 -10 70 -15 100 -5 30 -12 73
-15 95 -5 35 -10 66 -29 175 -37 218 -152 696 -227 949 -41 139 -133 420 -148
456 -5 11 -26 63 -46 115 -47 122 -40 106 -139 312 -47 98 -100 213 -117 255
-51 124 -120 209 -112 139z"/>
<path d="M17035 14353 c36 -94 124 -410 141 -506 3 -18 11 -63 19 -102 16 -78
42 -228 50 -290 3 -22 7 -53 10 -70 2 -16 7 -51 10 -77 3 -27 7 -67 10 -90 4
-39 8 -79 20 -208 27 -302 27 -1022 0 -1370 -2 -25 -6 -90 -10 -145 -3 -55 -8
-113 -10 -130 -2 -16 -7 -55 -10 -85 -3 -30 -7 -73 -10 -95 -2 -22 -7 -64 -11
-94 -3 -29 -7 -63 -9 -75 -2 -11 -6 -43 -10 -71 -13 -103 -57 -365 -86 -515
-17 -85 -33 -166 -35 -180 -3 -14 -14 -63 -25 -110 -11 -47 -22 -94 -24 -105
-8 -52 -103 -402 -160 -590 -87 -285 -204 -617 -284 -810 -152 -365 -157 -376
-291 -650 -120 -244 -235 -456 -390 -715 -128 -214 -454 -688 -581 -844 -5 -6
-24 -29 -41 -52 -18 -22 -49 -60 -68 -84 -38 -47 -201 -242 -210 -250 -3 -3
-43 -48 -90 -100 -87 -98 -428 -442 -535 -540 -33 -30 -112 -100 -175 -154
-63 -54 -129 -111 -145 -125 -17 -14 -47 -38 -67 -53 -20 -15 -42 -34 -50 -41
-40 -39 -370 -277 -543 -392 -176 -117 -483 -309 -525 -328 -8 -4 -28 -15 -45
-26 -34 -21 -90 -53 -155 -89 -25 -13 -58 -32 -75 -42 -61 -35 -165 -90 -355
-187 -662 -336 -1124 -517 -1730 -677 -52 -14 -106 -27 -120 -30 -14 -3 -38
-8 -54 -11 -16 -3 -33 -8 -36 -10 -4 -2 -22 -7 -41 -10 -19 -3 -62 -12 -97
-20 -34 -8 -77 -17 -95 -20 -17 -3 -63 -12 -102 -20 -73 -15 -221 -40 -290
-50 -22 -3 -65 -10 -95 -15 -30 -5 -73 -11 -95 -14 -22 -2 -98 -12 -170 -20
-190 -23 -249 -29 -415 -41 -47 -4 -107 -8 -135 -10 -325 -24 -852 -24 -996 0
-13 2 -60 6 -105 10 -45 3 -90 7 -100 9 -10 2 -57 7 -104 11 -47 3 -101 8
-120 10 -120 12 -241 19 -349 19 -117 1 -124 0 -127 -19 -1 -11 -5 -38 -9 -60
-3 -22 -8 -58 -11 -80 -3 -22 -9 -62 -14 -90 -5 -27 -14 -86 -21 -130 -6 -44
-12 -87 -14 -95 -1 -8 -6 -40 -10 -70 -4 -30 -9 -64 -11 -75 -50 -331 -65
-432 -69 -449 -2 -12 -7 -41 -10 -66 -3 -25 -7 -56 -9 -70 -6 -34 -16 -98 -21
-140 -8 -56 -12 -88 -30 -205 -9 -60 -19 -125 -21 -145 -2 -19 -11 -75 -19
-125 -7 -49 -17 -110 -20 -135 -10 -74 -16 -110 -30 -205 -8 -49 -16 -108 -19
-130 -3 -22 -8 -56 -12 -76 l-5 -35 48 -2 c26 -1 68 -4 93 -7 25 -3 68 -7 95
-10 85 -9 162 -23 385 -69 373 -77 449 -89 760 -111 361 -26 1155 -27 1410 -1
19 2 76 7 125 10 50 4 106 9 125 11 19 3 62 7 95 10 33 3 76 7 95 10 19 2 58
7 85 10 42 5 151 19 230 30 17 3 122 20 250 41 40 6 124 22 155 29 14 3 39 8
55 11 17 2 46 9 65 14 19 5 49 11 65 14 63 10 228 50 390 93 72 19 137 36 145
38 98 20 594 188 850 288 509 198 1155 523 1575 792 325 208 468 306 720 495
140 105 517 407 535 429 3 3 46 42 95 86 151 135 223 203 410 390 224 224 312
319 514 550 52 59 207 250 284 349 42 56 83 108 90 116 80 99 355 501 484 710
166 269 425 753 523 980 18 41 45 102 60 135 151 331 390 1038 455 1348 2 10
7 27 10 37 3 10 7 27 9 37 5 20 43 185 53 223 11 44 70 313 76 350 3 14 15 77
27 140 43 228 54 291 76 445 2 17 6 41 9 55 2 14 7 45 10 70 3 25 7 61 10 80
2 19 7 58 10 85 3 28 7 64 9 80 2 17 7 64 10 105 4 41 9 95 11 120 26 281 26
991 0 1225 -2 17 -6 75 -10 130 -3 55 -8 118 -10 140 -2 22 -6 76 -10 120 -4
44 -8 91 -10 105 -2 14 -7 52 -10 85 -3 33 -8 71 -10 85 -2 14 -7 45 -10 70
-3 25 -8 63 -12 85 -3 22 -7 50 -9 62 -1 12 -14 68 -28 125 -51 202 -64 280
-60 366 3 73 -1 99 -37 225 -22 78 -47 165 -54 192 -49 185 -158 516 -205 620
-5 11 -84 225 -175 475 -92 250 -186 491 -210 535 -51 95 -157 297 -198 378
-28 54 -47 78 -32 40z"/>
<path d="M10178 14015 c-2 -2 -75 -6 -163 -10 -88 -4 -167 -8 -175 -10 -8 -2
-51 -6 -95 -10 -115 -9 -154 -13 -194 -19 -20 -3 -58 -8 -86 -11 -27 -3 -61
-8 -75 -10 -63 -9 -187 -28 -205 -30 -39 -5 -151 -26 -250 -46 -55 -12 -109
-23 -120 -25 -11 -3 -36 -7 -55 -10 -115 -19 -592 -149 -835 -229 -122 -39
-454 -160 -510 -185 -22 -10 -95 -41 -163 -69 -522 -220 -1060 -518 -1533
-851 -20 -14 -47 -32 -59 -40 -105 -71 -491 -372 -594 -465 -6 -5 -45 -39 -86
-75 -117 -102 -181 -162 -370 -350 -240 -241 -383 -401 -582 -650 -55 -69
-105 -132 -111 -140 -7 -8 -53 -71 -103 -140 -251 -347 -434 -650 -649 -1075
-137 -272 -190 -390 -251 -555 -23 -63 -63 -169 -89 -235 -52 -130 -154 -427
-186 -540 -11 -38 -36 -124 -54 -191 -19 -66 -50 -174 -70 -240 -33 -110 -71
-254 -81 -314 -2 -14 -9 -45 -14 -70 -5 -25 -12 -61 -15 -80 -3 -19 -10 -60
-15 -90 -12 -67 -29 -189 -36 -250 -2 -25 -7 -56 -9 -70 -2 -14 -7 -58 -11
-99 -3 -41 -7 -82 -9 -92 -3 -17 -12 -127 -20 -259 -3 -58 -11 -216 -20 -440
-2 -41 -8 -98 -14 -127 -6 -29 -9 -69 -7 -90 2 -21 7 -72 11 -113 4 -41 8 -88
10 -105 5 -39 13 -165 30 -487 2 -43 6 -103 10 -133 3 -30 7 -81 10 -113 5
-48 18 -159 30 -250 12 -86 61 -367 75 -427 5 -22 16 -74 25 -115 20 -91 47
-199 74 -300 11 -41 23 -86 27 -100 39 -151 203 -642 253 -755 19 -43 82 -207
137 -355 71 -195 143 -346 209 -437 43 -61 53 -61 49 0 -4 60 -15 112 -55 257
-16 58 -32 116 -34 130 -3 14 -7 36 -10 50 -10 51 -25 136 -29 170 -3 19 -7
49 -10 65 -3 17 -14 107 -26 200 -11 94 -22 184 -25 200 -4 30 -12 105 -20
180 -27 258 -27 799 0 1190 6 89 17 219 20 234 1 9 6 50 9 91 13 131 15 154
21 205 8 60 11 86 20 145 4 25 8 56 10 70 5 35 54 311 59 335 2 11 12 56 21
100 17 83 82 338 116 460 67 236 239 705 331 903 21 46 38 85 38 88 0 8 183
373 226 452 213 389 506 834 735 1115 27 34 73 91 102 127 184 228 539 603
787 831 294 271 644 545 985 773 88 59 165 110 171 114 44 30 343 207 439 260
125 69 367 192 378 192 5 0 21 9 35 19 15 10 31 19 35 19 4 1 41 17 83 36 41
20 77 36 79 36 2 0 28 11 57 24 65 29 249 107 263 110 6 2 21 8 35 13 90 37
291 107 477 167 222 71 665 172 883 201 25 3 52 8 60 10 8 2 35 7 60 10 25 3
77 10 115 15 39 6 93 12 120 15 28 3 66 7 85 9 19 3 67 7 105 11 39 3 86 8
105 10 32 3 172 14 275 20 377 25 778 25 1045 0 19 -2 71 -6 115 -10 93 -7
114 -11 212 -30 111 -23 157 -20 186 11 29 31 49 90 62 184 3 19 7 49 10 65 2
17 7 59 10 95 4 36 15 108 25 160 11 52 22 111 25 130 3 19 10 58 15 85 12 63
20 112 25 150 2 17 7 48 10 70 12 77 14 91 34 250 19 155 24 193 36 320 13
133 15 143 45 270 48 202 19 277 -115 292 -22 2 -78 13 -125 24 -100 22 -302
56 -380 64 -30 3 -66 7 -80 10 -14 2 -50 7 -80 10 -30 4 -66 8 -80 10 -14 2
-50 7 -80 10 -30 3 -73 8 -95 10 -74 10 -115 14 -183 20 -37 2 -101 8 -142 11
-74 6 -657 14 -662 9z"/>
<path d="M8400 10465 c-326 -66 -636 -321 -799 -660 -74 -152 -139 -383 -158
-564 -10 -87 -10 -339 0 -419 33 -269 128 -518 270 -712 241 -327 664 -519
1152 -525 246 -2 485 50 680 148 245 122 421 317 532 587 27 65 40 107 69 215
3 11 8 36 10 55 3 19 9 55 13 80 9 54 7 266 -3 328 -28 171 -100 337 -201 462
-36 44 -65 84 -65 88 0 4 31 27 68 52 205 136 299 233 289 299 -12 74 -95 172
-162 190 -40 11 -119 -18 -207 -76 -92 -60 -127 -90 -318 -273 -236 -225 -276
-257 -404 -319 -107 -52 -149 -42 -213 53 -41 60 -57 115 -57 191 0 56 22 115
44 115 4 0 7 -27 8 -61 1 -122 39 -154 187 -153 103 0 142 14 165 59 24 49 14
162 -29 332 -20 84 -35 156 -32 161 3 4 37 9 75 10 97 3 150 28 167 78 17 53
14 175 -6 214 -22 43 -67 60 -151 55 -76 -3 -85 -5 -222 -41 -118 -30 -138
-30 -243 1 -124 37 -123 37 -264 40 -79 2 -156 -2 -195 -10z m217 -359 c-3
-11 -23 -74 -46 -138 -66 -190 -69 -297 -12 -447 17 -45 104 -197 121 -211 3
-3 38 -50 77 -105 80 -113 157 -250 149 -264 -4 -5 -19 -12 -36 -16 -33 -7
-100 -53 -146 -99 -160 -160 -160 -476 -1 -623 80 -74 158 -102 274 -97 167 8
293 91 356 235 23 50 29 71 42 139 7 32 7 159 1 186 -2 12 -7 38 -10 58 -3 21
-27 85 -53 144 -63 143 -64 189 -9 257 67 81 197 173 267 189 61 14 134 -81
185 -239 14 -44 28 -89 30 -100 2 -11 7 -31 10 -45 3 -14 7 -75 9 -136 7 -251
-67 -444 -234 -604 -88 -85 -195 -150 -315 -193 -80 -28 -93 -32 -150 -43 -16
-2 -32 -7 -35 -9 -26 -15 -245 -23 -353 -12 -294 30 -587 188 -756 407 -116
150 -188 343 -209 555 -11 118 -5 339 12 387 2 7 6 27 8 43 12 82 58 218 113
330 137 283 395 461 682 471 30 2 33 -1 29 -20z"/>
</g>
</svg>
