<?xml version="1.0" encoding="UTF-8" standalone="no"?>
<svg
   xmlns:dc="http://purl.org/dc/elements/1.1/"
   xmlns:cc="http://creativecommons.org/ns#"
   xmlns:rdf="http://www.w3.org/1999/02/22-rdf-syntax-ns#"
   xmlns:svg="http://www.w3.org/2000/svg"
   xmlns="http://www.w3.org/2000/svg"
   xmlns:sodipodi="http://sodipodi.sourceforge.net/DTD/sodipodi-0.dtd"
   xmlns:inkscape="http://www.inkscape.org/namespaces/inkscape"
   width="356.24078mm"
   height="338.74356mm"
   viewBox="0 0 356.24078 338.74356"
   version="1.1"
   id="svg8"
   inkscape:version="1.0.2 (e86c870879, 2021-01-15, custom)"
   sodipodi:docname="logo.svg">
  <defs
     id="defs2" />
  <sodipodi:namedview
     id="base"
     pagecolor="#ffffff"
     bordercolor="#666666"
     borderopacity="1.0"
     inkscape:pageopacity="0.0"
     inkscape:pageshadow="2"
     inkscape:zoom="0.29857056"
     inkscape:cx="184.8351"
     inkscape:cy="583.33966"
     inkscape:document-units="mm"
     inkscape:current-layer="layer7"
     inkscape:document-rotation="0"
     showgrid="false"
     inkscape:window-width="1269"
     inkscape:window-height="707"
     inkscape:window-x="-2"
     inkscape:window-y="32"
     inkscape:window-maximized="0" />
  <metadata
     id="metadata5">
    <rdf:RDF>
      <cc:Work
         rdf:about="">
        <dc:format>image/svg+xml</dc:format>
        <dc:type
           rdf:resource="http://purl.org/dc/dcmitype/StillImage" />
        <dc:title></dc:title>
      </cc:Work>
    </rdf:RDF>
  </metadata>
  <g
     inkscape:groupmode="layer"
     id="layer7"
     inkscape:label="6"
     transform="translate(-8.1759085,-7.8202559)">
    <path
       style="fill:#8496bf;stroke:none;stroke-width:0.352778"
       d="m 17.311449,-8.9391697 c -2.37066,2.710391 -6.21735,4.192411 -9.1722198,6.193013 -4.68312,3.17041399 -9.36272,6.635398 -13.75727,10.203392 C -17.806871,17.354769 -28.681601,29.089569 -38.092301,41.599422 c -41.96392,55.78334 -47.93627,136.729958 -14.44625,197.816958 h 0.35278 c -6.26558,-26.0036 -7.31929,-52.31201 -2.65864,-78.66944 1.23712,-6.99629 2.9597,-14.49529 5.3962,-21.16667 1.63068,-4.46476 5.447605,-11.20564 6.08189,-14.81667 v 0 c 3.363584,-5.72706 5.55131,-13.04431 8.72842,-18.44534 5.95348,-10.121538 12.3691,-19.715328 20.12739,-28.637428 30.02985,-34.535891 72.038982,-56.043694 117.486991,-61.227763 11.1499,-1.272117 22.43879,-0.864659 33.57386,-0.163689 3.57611,0.225072 6.96878,1.227314 10.58334,1.229783 0.003,-3.857272 1.03328,-7.8450717 1.67287,-11.6416667 1.20438,-7.149747 1.97097,-14.372625 3.175,-21.5194443 0.70802,-4.204476 0.13194,-10.378898 2.20768,-14.111111 -5.69489,-1.751083 -12.38285,-2.995859 -18.34444,-3.288242 -2.62608,-0.128834 -7.75794,0.308187 -9.87778,-1.297869 -7.23371,1.342072 -15.55291,-0.321945 -22.96195,0.04953 -13.752341,0.689433 -27.20023,3.155491 -40.538053,6.538665 -10.584744,2.684851 -21.206178,6.952686 -31.044448,11.67511 -4.16736,2.000321 -9.58814,6.5981093 -14.11111,7.1366953 z"
       id="path385"
       transform="translate(82.303506,42.165423)"
       sodipodi:nodetypes="ccccccscccccccccccsccscc" />
    <path
       style="fill:#3da49a;stroke:none;stroke-width:0.352778"
       d="m 53.269445,238.125 c -1.023762,0.97261 -0.608895,3.90278 -0.435681,5.27791 0.506942,4.02308 0.544336,8.29169 0.824794,12.36098 1.048103,15.20543 5.072239,30.64863 10.83945,44.70188 1.785409,4.35116 3.476273,10.79253 6.763103,14.21201 0.220134,-2.87373 -1.112661,-5.68184 -1.69545,-8.46667 -0.990953,-4.73639 -1.516239,-9.62942 -2.100086,-14.43249 -1.450622,-11.93377 -0.729192,-24.45526 0.665692,-36.36751 6.791325,-58.00055 51.207103,-107.1686 105.788173,-125.02515 15.23859,-4.98545 31.28963,-6.45795 47.24083,-6.9148 4.80025,-0.13758 9.71903,0.41275 14.49529,0.76306 1.59173,0.11642 4.01602,1.08832 5.54743,0.69744 2.05881,-0.52528 2.03059,-7.11129 2.40594,-8.86777 1.60831,-7.53004 2.63737,-15.60795 3.34927,-23.283335 0.20532,-2.210153 1.74802,-5.536847 0.83044,-7.7089 -0.59337,-1.404408 -3.09245,-1.2446 -4.37197,-1.565628 -4.64891,-1.166988 -9.37648,-1.538816 -14.11111,-2.163938 -20.5733,-2.717095 -42.62755,-0.02963 -62.3817,6.006747 -40.43821,12.356747 -76.679777,40.744424 -95.928038,78.910394 -2.249664,4.45981 -4.733572,9.20432 -6.173611,14.01021 -1.403969,2.90982 -2.674318,6.87026 -3.900574,10.47001 -1.249186,3.66641 -2.101587,7.39678 -3.256934,11.04944 -2.373489,7.50393 -3.342217,15.82208 -4.068939,23.63611 -0.376767,4.05342 -0.762,17.97791 -0.762,17.97791 M 28.575,275.16667 c -1.004711,2.43522 0.47946,3.79765 1.411111,5.99722 h 0.352778 l -1.058333,-5.99722 H 28.575 m 43.038889,39.86389 0.352778,0.35277 z"
       id="path389"
       sodipodi:nodetypes="ccccccsccccccccccccccscccccccccc" />
    <path
       style="fill:#3b8087;stroke:none;stroke-width:0.352778"
       d="m 202.49444,168.275 v -0.35278 c 1.75895,-1.22766 6.26146,-4.00685 6.9656,-6.02897 0.59725,-1.71626 -2.35091,-5.16079 -4.14478,-4.55683 -7.07108,2.38019 -11.6011,11.54536 -18.69052,13.7728 -2.76366,0.86818 -5.54532,-6.27345 -2.82752,-7.77311 7.1e-4,1.12183 -0.24765,2.78695 0.61454,3.66783 0.94509,0.9652 5.58095,1.1042 6.22688,-0.25223 1.24425,-2.61338 -0.95955,-7.39423 -1.19697,-10.11838 1.24777,-0.0102 3.35139,0.13864 4.37338,-0.71014 1.02059,-0.84808 1.0153,-5.1562 -0.25223,-5.77991 -2.56152,-1.26012 -6.15915,0.59902 -8.70726,0.92957 -1.39207,0.18027 -2.57034,-0.47343 -3.88056,-0.81633 -10.39848,-2.72133 -20.20676,4.48628 -24.12436,13.78515 -5.449,12.93389 -3.38172,30.77704 9.66047,38.42843 9.26677,5.43666 23.20114,5.69207 32.10278,-0.64946 9.75184,-6.9469 13.16179,-24.54628 3.88055,-33.54564 m -25.04722,-11.64167 c -0.73272,2.56823 -2.08879,5.02074 -2.08879,7.76111 0,6.57578 5.61975,9.94763 7.73324,15.52223 -8.97396,2.64054 -7.85742,17.30022 2.11666,16.39393 6.70208,-0.60924 8.52558,-7.35506 7.02275,-12.86616 -0.46284,-1.69686 -2.08139,-3.85515 -1.89653,-5.63068 0.17145,-1.64924 5.12974,-5.76051 6.80296,-5.19748 1.38325,0.46567 2.28918,2.88749 2.7559,4.12539 1.59033,4.21675 1.65877,9.26359 -0.1725,13.40555 -3.50908,7.93644 -13.54597,10.77877 -21.56813,9.36131 -8.65893,-1.52999 -15.47354,-7.608 -17.12101,-16.41686 -2.13643,-11.42154 3.21698,-26.45834 16.41545,-26.45834 z"
       id="path392" />
    <path
       style="fill:#c9b696;stroke:none;stroke-width:0.352778"
       d="m 295.98056,42.333333 c 0.64981,6.261806 2.782,12.43965 3.59868,18.697222 2.69981,20.693945 0.74507,42.005955 -4.82141,62.028915 -19.66807,70.74888 -95.98166,122.72081 -169.52172,109.06831 l -1.80798,13.05278 -4.18924,27.51666 c 47.22812,11.28042 97.7011,-1.76071 135.70479,-31.20496 28.21764,-21.86234 48.18662,-55.41856 55.66128,-90.15059 6.06284,-28.17143 4.55895,-55.694443 -3.51402,-83.260851 -1.96145,-6.697839 -4.43336,-13.610167 -7.74171,-19.750264 -1.01177,-1.877483 -1.50565,-4.83623 -3.36867,-5.997222 z"
       id="path395" />
    <path
       style="display:inline;fill:#58aaae;stroke:none;stroke-width:0.352778"
       d="m 342.19444,72.672222 c 6.108,17.094905 6.6802,38.204418 5.33577,56.091668 -4.01144,53.36716 -30.72553,106.08204 -76.34499,136.02617 -10.96539,7.19773 -22.38658,13.35405 -34.41136,18.65313 -20.52884,9.04628 -44.09369,12.8778 -66.38219,13.19882 -8.98278,0.12947 -17.86714,-1.71873 -26.81111,-1.71979 l -3.26602,21.51945 -3.78954,25.75277 c 7.31238,0.0212 14.89393,2.75837 22.225,3.46781 15.68062,1.51765 31.65087,1.11019 47.27222,-1.15394 69.55402,-10.08097 132.77215,-64.04927 150.82661,-132.48887 4.98123,-18.87678 8.48431,-38.56778 7.35542,-58.20833 -0.42686,-7.44114 -0.88547,-14.8523 -2.08139,-22.225 -0.4445,-2.74179 -2.44475,-8.06344 -1.58397,-10.58333 V 120.65 l -3.39372,-11.99409 -9.20927,-25.047577 z"
       id="path398" />
  </g>
</svg>
