<?xml version="1.0" encoding="UTF-8" standalone="no"?>
<svg
   xmlns:dc="http://purl.org/dc/elements/1.1/"
   xmlns:cc="http://creativecommons.org/ns#"
   xmlns:rdf="http://www.w3.org/1999/02/22-rdf-syntax-ns#"
   xmlns:svg="http://www.w3.org/2000/svg"
   xmlns="http://www.w3.org/2000/svg"
   xmlns:sodipodi="http://sodipodi.sourceforge.net/DTD/sodipodi-0.dtd"
   xmlns:inkscape="http://www.inkscape.org/namespaces/inkscape"
   width="2411.0281mm"
   height="456.65344mm"
   viewBox="0 0 2411.0281 456.65344"
   version="1.1"
   id="svg91"
   inkscape:version="1.0.2 (e86c870879, 2021-01-15, custom)"
   sodipodi:docname="titulo-logo.svg">
  <defs
     id="defs85" />
  <sodipodi:namedview
     id="base"
     pagecolor="#ffffff"
     bordercolor="#666666"
     borderopacity="1.0"
     inkscape:pageopacity="0.0"
     inkscape:pageshadow="2"
     inkscape:zoom="0.14"
     inkscape:cx="3108.7521"
     inkscape:cy="873.6238"
     inkscape:document-units="mm"
     inkscape:current-layer="layer1"
     inkscape:document-rotation="0"
     showgrid="false"
     inkscape:window-width="1366"
     inkscape:window-height="707"
     inkscape:window-x="0"
     inkscape:window-y="32"
     inkscape:window-maximized="1" />
  <metadata
     id="metadata88">
    <rdf:RDF>
      <cc:Work
         rdf:about="">
        <dc:format>image/svg+xml</dc:format>
        <dc:type
           rdf:resource="http://purl.org/dc/dcmitype/StillImage" />
        <dc:title />
      </cc:Work>
    </rdf:RDF>
  </metadata>
  <g
     inkscape:label="Capa 1"
     inkscape:groupmode="layer"
     id="layer1"
     transform="translate(163.92068,80.160049)">
    <text
       xml:space="preserve"
       style="font-style:normal;font-weight:normal;font-size:397.45px;line-height:1.25;font-family:sans-serif;fill:#8496bf;fill-opacity:1;stroke:none;stroke-width:9.93556"
       x="344.85889"
       y="317.56631"
       id="text95"><tspan
         sodipodi:role="line"
         id="tspan93"
         x="344.85889"
         y="317.56631"
         style="font-style:normal;font-variant:normal;font-weight:normal;font-stretch:normal;font-family:'Droid Sans';-inkscape-font-specification:'Droid Sans';fill:#8496bf;fill-opacity:1;stroke-width:9.93556">Global .Inc</tspan></text>
    <text
       xml:space="preserve"
       style="font-style:normal;font-weight:normal;font-size:397.45px;line-height:1.25;font-family:sans-serif;fill:#3da49a;fill-opacity:1;stroke:none;stroke-width:9.93556"
       x="335.96124"
       y="304.98312"
       id="text95-3"><tspan
         sodipodi:role="line"
         id="tspan93-6"
         x="335.96124"
         y="304.98312"
         style="font-style:normal;font-variant:normal;font-weight:normal;font-stretch:normal;font-family:'Droid Sans';-inkscape-font-specification:'Droid Sans';fill:#3da49a;fill-opacity:1;stroke-width:9.93556">Global .Inc</tspan></text>
    <g
       id="layer7"
       inkscape:label="6"
       transform="translate(-172.09659,-87.980308)">
      <path
         style="fill:#8496bf;stroke:none;stroke-width:0.475538"
         d="m 131.44311,42.069572 c -3.19591,3.653832 -8.38166,5.651716 -12.36499,8.348675 -6.31315,4.273971 -12.62168,8.945044 -18.54587,13.754989 C 84.100755,77.515911 69.440749,93.335357 56.754364,110.19967 0.18364975,185.40011 -7.8675556,294.52291 37.279661,376.8728 h 0.475585 c -8.446513,-35.05491 -9.866987,-70.52095 -3.584027,-106.05286 1.667697,-9.43172 3.98989,-19.54059 7.274482,-28.53441 2.198273,-6.01871 7.343814,-15.10594 8.198906,-19.97391 v 0 c 4.53434,-7.72045 7.48357,-17.58488 11.766568,-24.86574 8.025766,-13.64479 16.674535,-26.57803 27.13333,-38.60561 40.482585,-46.55721 97.114355,-75.551389 158.381745,-82.539921 15.03099,-1.714931 30.24932,-1.165631 45.26049,-0.220665 4.82078,0.303418 9.3944,1.654508 14.26702,1.657845 0.003,-5.199937 1.39288,-10.575795 2.2555,-15.6939 1.62343,-9.638433 2.65668,-19.375466 4.27981,-29.009948 0.95481,-5.667947 0.17806,-13.991567 2.97615,-19.022903 -7.67716,-2.360562 -16.69316,-4.0386508 -24.72981,-4.4328079 -3.54014,-0.1736793 -10.45841,0.4154608 -13.31586,-1.7496299 -9.75163,1.8092195 -20.96657,-0.4340099 -30.95471,0.066776 -18.53924,0.9294102 -36.66801,4.2538388 -54.64853,8.8146288 -14.26908,3.619413 -28.58764,9.372793 -41.8503,15.73898 -5.61793,2.696608 -12.92563,8.894817 -19.0229,9.620847 z"
         id="path385"
         sodipodi:nodetypes="ccccccscccccccccccsccscc" />
      <path
         style="fill:#3da49a;stroke:none;stroke-width:0.475538"
         d="m 68.965593,318.28957 c -1.380097,1.31093 -0.820839,5.26108 -0.587316,7.11473 0.683383,5.42377 0.733806,11.17821 1.111881,16.66378 1.412925,20.49821 6.837775,41.31674 14.612433,60.26181 2.406891,5.86596 4.686314,14.54922 9.117223,19.15893 0.296754,-3.8741 -1.499955,-7.6597 -2.285598,-11.41386 -1.335917,-6.38507 -2.044028,-12.98109 -2.831094,-19.45574 -1.955547,-16.08777 -0.983017,-32.96822 0.897393,-49.02676 9.15526,-78.18898 69.031175,-144.47173 142.611015,-168.54371 20.54273,-6.72076 42.18093,-8.70615 63.68441,-9.32187 6.47097,-0.18531 13.10178,0.55632 19.5408,1.02876 2.14562,0.15684 5.41381,1.46708 7.47831,0.94012 2.77529,-0.70806 2.7374,-9.58654 3.24345,-11.95474 2.16841,-10.15089 3.55543,-21.04051 4.51516,-31.38745 0.27672,-2.9795 2.35644,-7.46421 1.11931,-10.39224 -0.80006,-1.89321 -4.1689,-1.67777 -5.89377,-2.11053 -6.26693,-1.57324 -12.64027,-2.07458 -19.02287,-2.9172 -27.73435,-3.66281 -57.46527,-0.0403 -84.0955,8.09747 -54.51399,16.65794 -103.37042,54.92678 -129.31866,106.37766 -3.032716,6.01216 -6.381232,12.40819 -8.322518,18.88681 -1.892685,3.9225 -3.605193,9.26181 -5.25829,14.1145 -1.683989,4.94267 -2.833099,9.97123 -4.390585,14.89561 -3.199661,10.11586 -4.505574,21.32909 -5.485257,31.86316 -0.507927,5.46433 -1.027243,24.23549 -1.027243,24.23549 m -32.702764,42.82047 c -1.354427,3.28254 0.64636,5.11939 1.902299,8.08454 h 0.475558 l -1.426709,-8.08454 h -0.951148 m 58.019875,53.73953 0.475574,0.4756 z"
         id="path389"
         sodipodi:nodetypes="ccccccsccccccccccccccscccccccccc" />
      <path
         style="fill:#3b8087;stroke:none;stroke-width:0.475538"
         d="m 270.13286,224.12608 v -0.47563 c 2.37105,-1.65498 8.44081,-5.40143 9.39005,-8.1271 0.80534,-2.31395 -3.16918,-6.95762 -5.58729,-6.14337 -9.53257,3.20878 -15.6394,15.56407 -25.19647,18.5669 -3.7255,1.17019 -7.47538,-8.45704 -3.8116,-10.47893 9.6e-4,1.51263 -0.33392,3.75722 0.82831,4.94455 1.27423,1.3013 7.52374,1.4886 8.39444,-0.34002 1.67738,-3.52283 -1.29341,-9.96786 -1.61368,-13.64032 1.68214,-0.0102 4.51789,0.18689 5.89561,-0.95734 1.376,-1.14314 1.36889,-6.95083 -0.33967,-7.79181 -3.4535,-1.6986 -8.30344,0.80769 -11.73832,1.25313 -1.87679,0.24303 -3.46519,-0.63811 -5.2312,-1.10045 -14.01806,-3.66842 -27.24058,6.04773 -32.52179,18.58348 -7.34568,17.43581 -4.55849,41.48992 13.02326,51.80468 12.49229,7.32907 31.27694,7.67339 43.27713,-0.87545 13.14638,-9.36502 17.74298,-33.09039 5.23122,-45.22232 m -33.76562,-15.69392 c -0.9882,3.46214 -2.81559,6.76846 -2.81559,10.46262 0,8.86479 7.57557,13.41016 10.42461,20.92526 -12.09761,3.55931 -10.59246,23.32215 2.85341,22.10021 9.03516,-0.82115 11.49335,-9.915 9.46743,-17.34443 -0.62403,-2.28769 -2.80597,-5.1971 -2.55689,-7.59069 0.23123,-2.22328 6.91534,-7.76565 9.17113,-7.00633 1.86464,0.62733 3.08594,3.89191 3.71516,5.56112 2.14387,5.68438 2.23594,12.48807 -0.23252,18.07155 -4.73071,10.69911 -18.26102,14.53087 -29.07577,12.61999 -11.67295,-2.06257 -20.85953,-10.25631 -23.08035,-22.13164 -2.8801,-15.39695 4.33671,-35.66766 22.12938,-35.66766 z"
         id="path392" />
      <path
         style="fill:#c9b696;stroke:none;stroke-width:0.475538"
         d="m 396.15969,54.34664 c 0.87592,8.441431 3.74991,16.769643 4.85138,25.205359 3.6394,27.897191 1.00431,56.627411 -6.49977,83.619991 -26.514,95.37515 -129.39094,165.43757 -228.5287,147.0329 l -2.43754,17.59617 -5.64726,37.09445 c 63.66703,15.20715 131.7088,-2.37344 182.94087,-42.06674 38.03958,-29.47208 64.95948,-74.70854 75.03567,-121.53008 8.17337,-37.97716 6.14585,-75.08069 -4.73698,-112.242373 -2.64414,-9.029214 -5.97665,-18.347597 -10.43685,-26.624934 -1.36366,-2.530999 -2.02947,-6.51966 -4.54082,-8.084743 z"
         id="path395" />
      <path
         style="display:inline;fill:#58aaae;stroke:none;stroke-width:0.475538"
         d="m 458.45954,95.245908 c 8.23425,23.045282 9.00552,51.502672 7.19333,75.616072 -5.40798,71.94311 -41.42091,143.00712 -102.91929,183.37398 -14.78233,9.70317 -30.1793,18.0024 -46.38925,25.14624 -27.67455,12.19501 -59.44198,17.36006 -89.48852,17.79268 -12.10968,0.17463 -24.08636,-2.31688 -36.14351,-2.31827 l -4.40315,29.00999 -5.10824,34.71676 c 9.85752,0.0275 20.07826,3.71855 29.9611,4.67504 21.13867,2.04578 42.66767,1.49656 63.72663,-1.55569 93.76431,-13.59 178.98749,-86.34363 203.3264,-178.60567 6.71495,-25.44753 11.43743,-51.99246 9.91542,-78.46946 -0.57535,-10.03127 -1.19359,-20.02212 -2.80569,-29.9611 -0.59932,-3.69605 -3.2956,-10.87009 -2.1354,-14.2672 v -0.47561 l -4.57487,-16.16884 -12.41504,-33.76628 z"
         id="path398" />
    </g>
  </g>
</svg>
